<svg xmlns="http://www.w3.org/2000/svg" width="41" height="43" viewBox="0 0 41 43"><path fill="#fff" d="m7.92 37.48 3.27-3.35h.4l.2.14 1.49 1.48-.29.29c2.7-.19 5.22-1.38 7.1-3.33l1.06-1.15L19.6 30l-3.24 3.26-1.29-1.05-.19 1.68H9.29l-.19-1.68-1.3 1.05-3.92-3.97 1.04-1.31-1.66-.19v-5.61L4.92 22l-1.04-1.32.39-.4H0l.1-1.42a9.6 9.6 0 0 1 5.04-7.76 2.3 2.3 0 0 0 1.2-1.56 7.25 7.25 0 0 1 7.13-5.9h.9a2.1 2.1 0 0 0 1.58-.69 8.76 8.76 0 0 1 14.36 2.11 2.4 2.4 0 0 0 1.55 1.24 9 9 0 0 1 6.28 5.13 9.4 9.4 0 0 1-.26 8.16l-.37.69h-2.7l.39.4L34.16 22l1.66.18v5.61l-1.66.19 1.04 1.31-3.93 3.97-1.29-1.05-.19 1.68h-5.51l-.18-1.68-.91.73a13.6 13.6 0 0 1-10.33 5.76l.42.41L11.45 41z"/><path fill="#fff" d="M22.74 1a8.2 8.2 0 0 1 7.44 4.67 2.8 2.8 0 0 0 1.95 1.5 8.5 8.5 0 0 1 5.88 4.84 8.8 8.8 0 0 1-.24 7.69l-.23.44h-3.63l.92.93-1.27 1.6v.07l2.02.23v4.76l-2.02.23v.07l1.27 1.61-3.27 3.33-1.59-1.29h-.07l-.22 1.99h-4.64l-.22-1.98h-.07l-1.58 1.29a12.8 12.8 0 0 1-10.47 5.61h-.59l.91.91-1.14 1.11-2.81-2.82 2.76-2.84 1.13 1.13-.79.8h.49a11.3 11.3 0 0 0 8.06-3.5c.18-.19 1.12-1.19 1.38-1.5l-2.21-2.26-3.25 3.3-1.58-1.29H15l-.19 2.04h-4.63l-.23-1.98h-.07L8.3 32.98l-3.28-3.39 1.27-1.61v-.07l-2.05-.18v-4.76l2.02-.19v-.07L5 21.11l.91-.93H1.04l.06-.89a9.1 9.1 0 0 1 4.74-7.4 2.8 2.8 0 0 0 1.43-1.93 7 7 0 0 1 2.31-3.94c1.2-1 2.7-1.55 4.25-1.55h.89q.56.01 1.06-.21.51-.23.89-.64A8 8 0 0 1 22.74 1m0-1a9.4 9.4 0 0 0-6.82 2.98q-.23.25-.55.4a2 2 0 0 1-.66.13h-.89a7.65 7.65 0 0 0-7.49 6.28 1.8 1.8 0 0 1-.97 1.24 10 10 0 0 0-3.68 3.38A10 10 0 0 0 .1 19.18l-.07.88L0 21.13h3.82l.44.55.21.27h-.33l-.87.1v6.48l.87.1h.33l-.21.27-.54.69.61.62 3.28 3.46.62.63.68-.56.26-.21v.34l.1.88h1.44l-2.34 2.34-.68.7.69.7 2.81 2.82.7.69.68-.7 1.14-1.17.68-.7a14 14 0 0 0 9.51-5.8l.16-.13v.34l.1.88h6.37l.1-.88v-.34l.25.21.69.56.61-.63 3.28-3.33.61-.63-.54-.69-.15-.27h.33l.87-.1v-6.53l-.87-.1h-.33l.21-.27.45-.55h2.01l.28-.53.23-.43a9.8 9.8 0 0 0 .83-7.04 9.7 9.7 0 0 0-7.12-6.98 2 2 0 0 1-.73-.34 2 2 0 0 1-.51-.65 9.4 9.4 0 0 0-3.42-3.8A9 9 0 0 0 22.74 0m-5.98 34.25.61-.62 2.56-2.61.86.88c-.31.35-.63.68-.73.78a10.3 10.3 0 0 1-5.96 3.1l-.41-.4-.66-.72h2.65l.09-.88v-.34l.27.21.68.56z"/><path fill="#2d5967" d="m20.89 33-.53.55a11 11 0 0 1-3.6 2.3c-1.35.54-2.81.82-4.28.83h-.46l.77-.72-1.06-1.01L9 37.49 11.73 40l1.11-1.04-.89-.81h.58c1.8-.02 3.58-.39 5.21-1.1A13 13 0 0 0 22 34.04l-.63-.58zm6.35-23-1.11 1.05.82.75h-.36c-1.68.01-3.35.33-4.9.94A13 13 0 0 0 17 15.92l.69.64.44.44.57-.59a11 11 0 0 1 3.62-2.29c1.36-.54 2.82-.82 4.29-.83h.37l-.84.77 1.13 1.04L30 12.56z"/><path fill="#2d5967" d="M34.77 7.32a8 8 0 0 0-2.69-1.12 3 3 0 0 1-1.15-.51 3 3 0 0 1-.81-.96 8.28 8.28 0 0 0-13.51-1.96 2.6 2.6 0 0 1-2.21.82 6.7 6.7 0 0 0-7.19 5.39q-.12.6-.49 1.1t-.91.79a9 9 0 0 0-4.75 7.24l-.06.87h3.19l.45-.45 1.17-1.15H2.8a7.3 7.3 0 0 1 3.77-5.06 4.4 4.4 0 0 0 2.27-3.03 5.03 5.03 0 0 1 5.44-4.08 4.2 4.2 0 0 0 3.55-1.33 6.67 6.67 0 0 1 10.89 1.57q.45.9 1.24 1.51.79.62 1.76.83a6.8 6.8 0 0 1 4.66 3.66 7 7 0 0 1 .13 5.93h-2.48l1.17 1.17.44.45h1.86l.22-.42a8.54 8.54 0 0 0-2.95-11.26M30 25.03q0-.9-.5-1.65a3 3 0 0 0-1.33-1.1 2.95 2.95 0 0 0-3.24.65 2.95 2.95 0 0 0 .45 4.57 3 3 0 0 0 2.79.27q.54-.21.96-.64a3 3 0 0 0 .87-2.1m-4.43 0q0-.46.25-.83.25-.38.67-.56a1.5 1.5 0 0 1 1.63.33q.32.32.41.77a1.5 1.5 0 0 1-1.47 1.79q-.3 0-.58-.11a1.4 1.4 0 0 1-.5-.32 2 2 0 0 1-.33-.49 1.4 1.4 0 0 1-.12-.58z"/><path fill="#2d5967" d="m31.86 17.73-1.62 1.23h-.07L29.94 17h-4.73l-.23 1.96h-.07l-1.61-1.23-2.98 2.85-.37.37 1.25 1.49v.07l-2.04.18v3.14l-1.63.2-.17.48q-.13.4-.33.78l-.25.46.99 1.22-1.23 1.19-1.28-.95-.48.22a5 5 0 0 1-.82.33l-.5.16-.19 1.55h-1.76l-.19-1.55-.51-.16q-.42-.14-.81-.33l-.48-.22-1.28.95-1.26-1.19 1-1.22-.22-.44a5 5 0 0 1-.34-.78l-.17-.48-1.65-.19v-1.7l1.63-.17.19-.47q.13-.4.34-.78l.25-.46-1-1.22 1.26-1.2 1.28.95.48-.23q.39-.2.81-.33l.51-.15.19-1.55h1.77l.19 1.55.5.15q.42.13.82.33l.48.23 1.28-.95 1.25 1.2 1.05-1.23-2.21-2.1-1.61 1.23h-.07L14.76 17h-4.73l-.23 1.96h-.07l-1.61-1.23-3.36 3.2 1.3 1.53v.07L4 22.75v4.56l2.06.22v.06l-1.3 1.55 3.36 3.19 1.61-1.24h.07l.23 1.91h4.73l.23-1.9h.07l1.61 1.24 3.32-3.16-.29-.35-.99-1.2v-.06l.93-.08h.29l.89-.18v-3.13l1.62-.17.16-.49q.14-.4.34-.78l.25-.46-.99-1.22 1.25-1.2 1.28.95.48-.23q.39-.2.82-.33l.51-.15.18-1.55h1.75l.18 1.55.51.15q.42.13.81.33l.48.23 1.28-.95 1.27 1.2-1 1.22.24.46q.2.38.34.78l.17.49 1.63.17v1.7l-1.63.17-.17.48q-.13.4-.34.78l-.24.45 1 1.23-1.27 1.17-1.27-.95-.48.22q-.39.2-.81.33l-.51.16-.19 1.54h-1.78l-.21-1.55-.52-.16a5 5 0 0 1-.81-.33l-.45-.21-1.28.95-1.14-1.11-.16-.04-1 1.18 2.18 2.07 1.61-1.23h.07l.23 1.97h4.73l.23-1.9h.07l1.62 1.24 3.34-3.19-1.29-1.55v-.06l2.09-.23v-4.56l-2.06-.18v-.07l1.3-1.54z"/><path fill="#2d5967" d="M9 24.97q0 .9.5 1.65t1.33 1.1q.84.33 1.72.17.89-.19 1.52-.82a2.95 2.95 0 0 0-.45-4.57A2.96 2.96 0 0 0 9 24.97m4.43 0q0 .46-.25.83-.25.38-.67.56a1.5 1.5 0 0 1-1.63-.33 1.5 1.5 0 0 1-.41-.77 1.5 1.5 0 0 1 1.47-1.79q.3 0 .58.11.29.1.5.32.22.2.33.49t.12.58z"/></svg>