<svg xmlns="http://www.w3.org/2000/svg" width="44" height="40" viewBox="0 0 44 40"><path fill="#fff" d="m6.64 37.35-3.32-3.32-.64-1.95 1.57-1.47 2.95-2.97a24 24 0 0 1 3.23-2.77l3.51-2.59c-.28-.46-.55-1.02-.83-1.48H0v-2.77h12.09q-.44-1.8-.46-3.61H0v-2.68h11.91c.27-1.29.64-2.49 1.2-3.6H0V5.36h14.86c.37-.46.65-.83 1.02-1.11A14.3 14.3 0 0 1 26.12 0a14.47 14.47 0 0 1 10.25 24.68 14 14 0 0 1-10.25 4.26 14.3 14.3 0 0 1-7.75-2.22l-2.59 3.51a31 31 0 0 1-2.76 3.24l-2.96 2.96L8.58 38z"/><path fill="#fff" d="M26.63.92c3.61 0 7.22 1.39 9.9 4.07a14 14 0 0 1 0 19.78 13.8 13.8 0 0 1-9.9 4.06c-2.77 0-5.45-.83-7.86-2.4l-.65.83-2.21 2.96a23 23 0 0 1-2.78 3.14l-2.96 3.14-1.29 1.39-1.57-.56-3.15-3.13-.55-1.58 1.38-1.29 2.96-2.96a29 29 0 0 1 3.15-2.77l2.96-2.22.83-.65c-.46-.64-.83-1.38-1.11-2.03H.92v-1.75h12.3a13 13 0 0 1-.55-4.53H.92v-1.76h11.93c.28-1.57.84-3.14 1.58-4.53H.92V6.28h14.71c.37-.46.74-.83 1.11-1.29A14 14 0 0 1 26.63.92m0-.92c-3.97 0-7.77 1.57-10.54 4.34-.28.28-.55.65-.92 1.02H0v3.61h12.95q-.55 1.27-.84 2.68H0v3.6h11.74c0 .92.1 1.85.28 2.68H0v3.6h13.32c.18.28.37.65.46.93l-.19.09-2.96 2.22a32 32 0 0 0-3.23 2.86l-2.96 2.96-1.39 1.29-.46.37.18.74.56 1.58.09.18.19.18 3.14 3.15.19.18.18.09 1.48.47.55.18.37-.46 1.3-1.39 3.05-2.95c1.02-1.02 1.94-2.13 2.87-3.24L18.96 28l.09-.18a14.6 14.6 0 0 0 7.58 2.03 15 15 0 0 0 10.54-4.34 15 15 0 0 0 0-21.17A15 15 0 0 0 26.63 0"/><path fill="#2d5967" d="M0 6v1h12.01c.27-.32.63-.68.99-1zm0 7v1h10.81c0-.32.1-.68.19-1zm0 6v1h12a2.3 2.3 0 0 1-.56-1zm17.52 3.66a11.35 11.35 0 0 0 16.05 0 11.55 11.55 0 0 0 0-16.21 11.43 11.43 0 0 0-16.14 0 11.46 11.46 0 0 0 .09 16.21m.92-15.19a10 10 0 0 1 14.12 0 10.1 10.1 0 0 1 0 14.17 10 10 0 0 1-14.12 0 10.1 10.1 0 0 1 0-14.17"/><path fill="#2d5967" d="M17.72 27.01a14.16 14.16 0 0 0 17.81-1.67 14 14 0 0 0 0-19.79 14.1 14.1 0 0 0-19.85-.09 14.1 14.1 0 0 0-1.76 17.76l-.83.64-2.97 2.23a23 23 0 0 0-3.15 2.77L4 31.82 9.19 37l2.97-2.96a28 28 0 0 0 2.78-3.15l2.23-2.96zM16.71 6.47a12.7 12.7 0 0 1 17.89 0 12.65 12.65 0 0 1-8.9 21.56 12.3 12.3 0 0 1-8.9-3.7 12.4 12.4 0 0 1-.09-17.86m-2.97 23.5c-.84 1.02-1.67 2.04-2.6 3.05L9.1 35.06l-3.15-3.24 2.04-2.03c.92-.93 1.94-1.86 3.06-2.59l2.97-2.22.83-.65q.42.54.83.92c.28.28.65.56.93.84l-.65.83zM2.4 33l-.4.4.4 1.37 2.74 2.75 1.38.48.48-.48z"/><path fill="#2d5967" d="M20.38 19.56c1 0 1.83-.81 1.83-1.8v-.09l2.38-1.36v2.17a2.3 2.3 0 0 0-1.47 2.17A2.4 2.4 0 0 0 25.5 23a2.4 2.4 0 0 0 2.38-2.35 2.4 2.4 0 0 0-1.47-2.17v-2.17l2.38 1.36v.09c0 .99.83 1.8 1.83 1.8 1.01 0 1.83-.81 1.83-1.8 0-1-.82-1.81-1.83-1.81q-.52 0-.91.27l-2.47-1.45 1.83-.99A2.4 2.4 0 0 0 33 11.97c0-1.26-1.1-2.35-2.38-2.35a2.4 2.4 0 0 0-2.38 2.35v.27l-1.83 1v-2.8c.55-.28.92-.91.92-1.63 0-1-.82-1.81-1.83-1.81s-1.83.81-1.83 1.81c0 .72.37 1.26.92 1.63v2.8l-1.83-1v-.27c0-1.26-1.1-2.35-2.38-2.35A2.4 2.4 0 0 0 18 11.97a2.4 2.4 0 0 0 3.93 1.81l1.83.99-2.47 1.45a1.6 1.6 0 0 0-.91-.27c-1.01 0-1.83.81-1.83 1.81 0 .99.82 1.8 1.83 1.8m6.13 1.09a1.01 1.01 0 0 1-2.02 0 1.01 1.01 0 0 1 2.02 0m3.11-8.68a1 1 0 0 1 1-.99c.55 0 1.01.45 1.01.99s-.46 1-1.01 1a1 1 0 0 1-1-1m-9.24 1c-.55 0-1.01-.46-1.01-1s.46-.99 1.01-.99a1 1 0 0 1 1 .99 1 1 0 0 1-1 1"/></svg>