<svg xmlns="http://www.w3.org/2000/svg" width="43" height="43" viewBox="0 0 43 43"><path fill="#fff" d="M20.5 41c-1.1 0-2.1-.7-2.6-1.7-.2 0-.4-.1-.6-.1-.5.7-1.3 1-2.2 1-1.5 0-2.7-1.2-2.8-2.6-3.9-1.9-7-5-8.9-8.9-1.5-.1-2.6-1.3-2.6-2.8 0-.9.4-1.6 1-2.2 0-.2-.1-.4-.1-.6-1-.4-1.7-1.5-1.7-2.6s.7-2.1 1.7-2.6c0-.2.1-.4.1-.6-.7-.5-1-1.3-1-2.2 0-1.5 1.2-2.7 2.6-2.8 1.9-3.9 5-7 8.9-8.9.1-1.5 1.3-2.6 2.8-2.6.9 0 1.6.4 2.2 1 .2 0 .4-.1.6-.1.4-1 1.5-1.7 2.6-1.7s2.1.7 2.6 1.7c.2 0 .4.1.6.1.5-.7 1.3-1 2.2-1 1.5 0 2.7 1.2 2.8 2.6 3.9 1.9 7 5 8.9 8.9 1.5.1 2.6 1.3 2.6 2.8 0 .9-.4 1.6-1 2.2 0 .2.1.4.1.6 1 .4 1.7 1.5 1.7 2.6s-.7 2.1-1.7 2.6c0 .2-.1.4-.1.6.7.5 1 1.3 1 2.2 0 1.5-1.2 2.7-2.6 2.8-1.9 3.9-5 7-8.9 8.9-.1 1.5-1.3 2.6-2.8 2.6-.9 0-1.6-.4-2.2-1-.2 0-.4.1-.6.1-.5 1-1.5 1.7-2.6 1.7"/><path fill="#fff" d="M20.9 1c1.1 0 1.89.7 2.19 1.69.4 0 .8.1 1.19.2a2.2 2.2 0 0 1 2-1.09c1.29 0 2.28.99 2.28 2.29v.1a18.2 18.2 0 0 1 9.06 9.08h.1c1.29 0 2.29 1 2.29 2.29 0 .8-.4 1.5-1.1 2 .1.4.1.8.2 1.2 1 .3 1.7 1.19 1.7 2.19s-.7 1.89-1.7 2.2c0 .4-.1.79-.2 1.19.7.4 1.1 1.1 1.1 2 0 1.3-1 2.29-2.29 2.29h-.1a18.3 18.3 0 0 1-9.06 9.08v.1c0 1.3-.99 2.3-2.28 2.3-.8 0-1.5-.4-2-1.1-.39.1-.79.1-1.19.2-.3.99-1.2 1.69-2.19 1.69-1 0-1.89-.7-2.19-1.69-.4 0-.8-.1-1.2-.2-.39.7-1.09 1.1-1.98 1.1-1.3 0-2.29-1-2.29-2.3v-.1a18.3 18.3 0 0 1-9.06-9.08h-.1c-1.3 0-2.29-.99-2.29-2.29 0-.8.4-1.5 1.1-2-.11-.4-.11-.79-.2-1.19-1-.31-1.69-1.1-1.69-2.2s.69-1.89 1.69-2.19q.02-.6.2-1.2a2.2 2.2 0 0 1-1.1-2c0-1.29.99-2.29 2.29-2.29h.1a18.3 18.3 0 0 1 9.06-9.08v-.1c0-1.3.99-2.29 2.29-2.29.79 0 1.49.4 1.98 1.09.4-.1.8-.1 1.2-.2.3-.99 1.1-1.69 2.19-1.69m0-1c-1.19 0-2.39.7-2.89 1.8h-.1a3.32 3.32 0 0 0-5.67 1.79 19.7 19.7 0 0 0-8.76 8.78 3.2 3.2 0 0 0-2.69 3.19c0 .9.4 1.8 1 2.4v.1A3.2 3.2 0 0 0 0 20.95c0 1.2.7 2.39 1.79 2.89v.1c-.6.6-1 1.5-1 2.4 0 1.7 1.2 2.99 2.79 3.29a19.7 19.7 0 0 0 8.76 8.78 3.25 3.25 0 0 0 3.28 2.79c.9 0 1.8-.4 2.39-1h.1c.6 1.1 1.7 1.8 2.89 1.8s2.39-.7 2.89-1.8h.1a3.33 3.33 0 0 0 5.67-1.79 19.7 19.7 0 0 0 8.76-8.78 3.24 3.24 0 0 0 2.78-3.29c0-.9-.39-1.8-.99-2.4v-.1a3.22 3.22 0 0 0 0-5.78v-.1c.6-.6.99-1.5.99-2.4a3.3 3.3 0 0 0-2.78-3.29 19.7 19.7 0 0 0-8.76-8.78A3.6 3.6 0 0 0 26.28.8c-.9 0-1.8.4-2.39 1h-.1A3.2 3.2 0 0 0 20.9 0"/><path fill="#2c5967" d="M22.4 15H24v-1h-7v1zM21 18.6V17h-1v.6h.5-.5V24h1zM18.6 25H17v1h7v-1z"/><path fill="#2c5967" d="M41 21c0-1.1-.7-1.9-1.7-2.2 0-.4-.1-.8-.2-1.2.7-.4 1.1-1.1 1.1-2 0-1.3-1-2.3-2.3-2.3h-.1c-1.8-4-5.1-7.3-9.1-9.1v-.1c0-1.3-1-2.3-2.3-2.3-.8 0-1.5.4-2 1.1-.4-.1-.8-.1-1.2-.2-.3-1-1.1-1.7-2.2-1.7s-1.9.7-2.2 1.7c-.4 0-.8.1-1.2.2a2.2 2.2 0 0 0-2-1.1c-1.3 0-2.3 1-2.3 2.3v.1C9.3 6 6 9.3 4.2 13.3h-.1c-1.3 0-2.3 1-2.3 2.3 0 .8.4 1.5 1.1 2-.1.4-.1.8-.2 1.2-1 .3-1.7 1.1-1.7 2.2s.7 1.9 1.7 2.2c0 .4.1.8.2 1.2-.7.4-1.1 1.1-1.1 2 0 1.3 1 2.3 2.3 2.3h.1c1.8 4 5.1 7.3 9.1 9.1v.1c0 1.3 1 2.3 2.3 2.3.8 0 1.5-.4 2-1.1.4.1.8.1 1.2.2.3 1 1.2 1.7 2.2 1.7s1.9-.7 2.2-1.7c.4 0 .8-.1 1.2-.2.4.7 1.1 1.1 2 1.1 1.3 0 2.3-1 2.3-2.3v-.1c4-1.8 7.3-5.1 9.1-9.1h.1c1.3 0 2.3-1 2.3-2.3 0-.8-.4-1.5-1.1-2 .1-.4.1-.8.2-1.2 1-.3 1.7-1.1 1.7-2.2m-3.1 0c0-.4.3-.8.8-.8.4 0 .8.3.8.8s-.3.8-.8.8c-.4 0-.8-.4-.8-.8m.8-5.4c0 .4-.3.8-.8.8s-.8-.3-.8-.8c0-.4.3-.8.8-.8s.8.4.8.8M26.4 3.3c.4 0 .8.3.8.8 0 .4-.3.8-.8.8-.4 0-.8-.3-.8-.8 0-.4.4-.8.8-.8M21 2.5c.4 0 .8.3.8.8s-.4.8-.8.8-.8-.3-.8-.8.4-.8.8-.8m-4.6 1.6c0 .4-.3.8-.8.8-.4 0-.8-.3-.8-.8 0-.4.3-.8.8-.8.4 0 .8.4.8.8M3.3 15.6c0-.4.3-.8.8-.8.4 0 .8.3.8.8 0 .4-.3.8-.8.8-.4 0-.8-.4-.8-.8m0 4.6c.4 0 .8.3.8.8s-.3.8-.8.8-.8-.4-.8-.8.4-.8.8-.8m0 6.2c0-.4.3-.8.8-.8.4 0 .8.3.8.8 0 .4-.3.8-.8.8-.4 0-.8-.4-.8-.8m11.5 11.5c0-.4.3-.8.8-.8.4 0 .8.3.8.8s-.3.8-.8.8c-.4 0-.8-.4-.8-.8m6.2 1.6c-.4 0-.8-.3-.8-.8 0-.4.3-.8.8-.8s.8.3.8.8c0 .4-.4.8-.8.8m4.6-1.6c0-.4.3-.8.8-.8.4 0 .8.3.8.8s-.3.8-.8.8c-.4 0-.8-.4-.8-.8m2.5-1.5q-.45-.45-.9-.6V23h-1.5v12.8c-.8.3-1.4 1-1.5 1.9-.3.1-.6.1-1 .2-.3-.6-.7-1.1-1.4-1.3v-8.2h-1.5v8.2c-.6.2-1.1.7-1.4 1.3-.3 0-.7-.1-1-.2-.1-.9-.7-1.6-1.5-1.9V23h-1.5v12.8q-.6.15-.9.6c-3.6-1.7-6.6-4.6-8.3-8.3q.45-.45.6-.9h7.4v-1.5H6.3c-.3-.8-1-1.4-1.9-1.5-.1-.3-.1-.6-.2-1 .6-.3 1.1-.7 1.3-1.4h13.6v-1.5H5.5c-.2-.6-.7-1.1-1.3-1.4 0-.3.1-.7.2-1 .9-.1 1.6-.7 1.9-1.5h7.4v-1.5H6.3q-.15-.6-.6-.9c1.7-3.6 4.6-6.6 8.3-8.3.3.3.6.5 1 .6v11.6h.8-.8v1.2h1.5V6.2c.8-.3 1.4-1 1.5-1.9.3-.1.6-.1 1-.2.3.6.8 1.1 1.4 1.3v8.2h1.5V5.4c.6-.2 1.1-.7 1.3-1.3.3 0 .7.1 1 .2.1.9.7 1.6 1.5 1.9V19h1.5V6.2q.6-.15.9-.6c3.6 1.7 6.6 4.6 8.3 8.3q-.45.45-.6.9h-7.4v1.5h7.4c.3.8 1 1.4 1.9 1.5.1.3.1.6.2 1-.6.3-1.1.7-1.3 1.4H23v1.5h13.6c.2.6.7 1.1 1.3 1.4 0 .3-.1.7-.2 1-.9.1-1.6.7-1.9 1.5h-7.4v1.5h7.4q.15.6.6.9c-1.7 3.7-4.7 6.7-8.3 8.4m10.6-10c0 .4-.3.8-.8.8s-.8-.3-.8-.8c0-.4.3-.8.8-.8s.8.4.8.8"/></svg>