<svg xmlns="http://www.w3.org/2000/svg" width="39" height="43" viewBox="0 0 39 43"><path fill="#fff" d="M.01 41v-7a9.2 9.2 0 0 1 8.28-9.22q-1.35-1.28-2.27-2.91l-.26-.46L9.79 4.82A7 7 0 0 1 16.48 0h4.03a7.2 7.2 0 0 1 6.64 4.81l.13.47 3.96 16.11-.26.46a12 12 0 0 1-2.26 2.92 9.2 9.2 0 0 1 8.27 9.21v7z"/><path fill="#fff" d="M21.02 1a6.6 6.6 0 0 1 6.29 4.91l3.89 15.9-.17.3a11 11 0 0 1-3.16 3.57h.07a8.8 8.8 0 0 1 9.05 8.79V41H1.02v-6.53a8.7 8.7 0 0 1 5.6-8.19 9 9 0 0 1 3.45-.6h.1a10.5 10.5 0 0 1-3.16-3.57l-.18-.3L10.68 5.9A6.5 6.5 0 0 1 16.96 1zm-.03-1h-4.03a7.6 7.6 0 0 0-6.89 4.72h-.09l-.25 1-3.91 15.86-.1.38.2.35.13.29a13 13 0 0 0 1.66 2.33 9.8 9.8 0 0 0-5.55 3.41 9.6 9.6 0 0 0-2.14 6.13V42h37.97v-7.53a9.8 9.8 0 0 0-7.73-9.54q.96-1.08 1.68-2.33l.17-.29.2-.35-.11-.39-3.9-15.9-.24-1h-.1A7.6 7.6 0 0 0 21.02 0z"/><path fill="#2c5967" d="M27.99 25.68h-.07c1.31-.94 2.4-2.16 3.17-3.57l.16-.3-3.9-15.91A6.6 6.6 0 0 0 21.03 1H17a6.6 6.6 0 0 0-6.28 4.91l-3.93 15.9.17.3a11 11 0 0 0 3.16 3.57h-.05a9 9 0 0 0-3.46.6A8.9 8.9 0 0 0 1 34.48V41h1.72v-6.52a7.1 7.1 0 0 1 4.55-6.62 7 7 0 0 1 2.8-.48h4.03a4.95 4.95 0 0 0 8.19 3.05 5 5 0 0 0 1.65-3.05h4.03a7.2 7.2 0 0 1 7.32 7.1V41H37v-6.52a8.7 8.7 0 0 0-5.61-8.19 9 9 0 0 0-3.46-.61zM12.16 12.93V10a7.9 7.9 0 0 0 6.85-1.63 8.2 8.2 0 0 0 5.11 1.83h.46q.65-.05 1.29-.2v2.92a7 7 0 0 1-1.92 5.02 7 7 0 0 1-4.94 2.2 7.1 7.1 0 0 1-6.4-4.52 7 7 0 0 1-.45-2.7zm11.78 12.53v-5.25a9 9 0 0 0 3.6-6.35l1.88 7.69a8 8 0 0 1-5.48 3.92zM16.97 2.7H21a5 5 0 0 1 4.84 5.1v.46a6.4 6.4 0 0 1-6.28-1.63l-.59-.52-.57.52a6.3 6.3 0 0 1-6.28 1.63V7.8a5 5 0 0 1 4.82-5.1zM8.61 21.55l1.87-7.66a9 9 0 0 0 3.62 6.32v5.26a8 8 0 0 1-5.47-3.92zm10.42 8.37A3.27 3.27 0 0 1 15.78 27v-5.81a8.3 8.3 0 0 0 6.46 0V27a3.27 3.27 0 0 1-3.23 2.94"/></svg>